<svg width="908" height="274" viewBox="0 0 908 274" fill="none" xmlns="http://www.w3.org/2000/svg">
<path d="M170.043 150.749C181.403 150.583 192.347 145.262 200.539 138.722H202.523L190.555 153.021H101.365C103.061 152.301 133.512 151.411 135.995 146.426L150.747 120.875C152.571 117.715 153.243 114.999 152.411 114.223H170.779C169.051 114.999 166.523 117.715 164.699 120.875L149.307 147.534C148.315 149.252 147.611 150.472 148.251 150.804C156.251 150.804 165.531 150.804 170.043 150.749Z" fill="black"/>
<path d="M270.542 146.426C268.718 149.585 268.11 152.301 268.974 153.021H250.606C252.302 152.301 254.766 149.585 256.59 146.426L265.038 131.793C245.614 147.811 242.158 151.47 245.038 153.021H215.15C206.894 153.021 203.566 147.257 207.662 140.163L218.798 120.875C220.622 117.715 221.294 114.999 220.462 114.223H238.83C237.102 114.999 234.574 117.715 232.75 120.875L221.614 140.163C218.67 145.262 218.83 150.195 225.038 150.527C226.894 150.638 230.606 150.638 232.846 150.416C236.622 149.973 242.254 147.313 251.598 139.442C273.358 121.041 277.23 116.551 272.814 114.223H291.374C289.646 114.999 287.118 117.715 285.294 120.875L270.542 146.426Z" fill="black"/>
<path d="M305.299 148.089C316.403 153.132 340.627 148.643 351.347 142.491L352.051 143.71C340.531 150.028 328.787 153.188 315.123 153.908C291.731 155.072 278.611 148.754 285.043 135.618C290.675 124.2 309.043 114.778 332.147 113.558C345.331 112.893 356.211 114.999 361.875 113.281L357.715 125.697H355.859C354.803 119.877 346.291 115.997 336.243 115.886C326.675 115.831 315.251 118.768 308.115 124.256C298.131 132.015 295.699 143.765 305.299 148.089Z" fill="black"/>
<path d="M390.238 114.223H441.758C440.03 114.999 437.502 117.715 435.678 120.875L420.926 146.426C419.102 149.585 418.494 152.301 419.358 153.021H400.926C402.686 152.301 405.15 149.585 406.974 146.426L409.438 142.158H373.151L370.687 146.426C368.863 149.585 368.255 152.301 369.119 153.021H350.751C352.447 152.301 354.911 149.585 356.735 146.426L367.871 127.138C371.967 120.043 381.982 114.223 390.238 114.223ZM381.823 127.138L374.495 139.83H410.783L420.382 123.202C421.95 120.487 423.615 117.604 422.111 116.773H397.214C390.622 117.106 384.767 122.038 381.823 127.138Z" fill="black"/>
<path d="M479.77 131.073C481.594 135.341 490.905 150.25 495.577 153.021H474.969C474.681 148.31 471.897 140.939 468.153 137.89C452.185 147.479 448.697 150.86 451.673 153.021H426.073C427.769 152.301 430.233 149.585 432.057 146.426L446.809 120.875C448.633 117.715 449.305 114.999 448.473 114.223H513.177C504.857 117.438 495.834 121.872 486.938 126.971C484.378 128.412 482.042 129.798 479.77 131.073ZM444.793 148.532C489.369 123.424 499.993 116.551 484.889 116.551H466.521C463.257 116.551 461.273 119.988 459.417 123.202L444.793 148.532Z" fill="black"/>
<path d="M543.46 153.077L543.428 153.022C544.292 152.301 543.62 149.585 541.796 146.426L527.044 120.875C525.22 117.715 522.756 115 521.028 114.224H539.396C538.564 115 539.172 117.715 540.996 120.875L555.588 146.149C569.764 123.147 571.812 117.383 563.908 114.224H585.796C580.004 116.053 575.524 119.711 571.076 126.972C570.212 128.357 569.412 129.632 568.676 130.907C574.98 134.953 602.148 150.195 610.148 153.077H589.54C583.684 148.255 572.1 140.717 564.868 137.724C559.94 147.368 560.74 150.86 566.244 153.077H543.46Z" fill="black"/>
<path d="M614.397 153.077L614.365 153.022C615.229 152.301 614.557 149.585 612.733 146.426L597.981 120.875C596.157 117.715 593.693 115 591.965 114.224H610.333C609.501 115 610.109 117.715 611.933 120.875L626.685 146.426C628.509 149.585 631.037 152.301 632.765 153.077H614.397Z" fill="black"/>
<path d="M667.841 131.073C674.593 135.341 701.121 150.25 708.993 153.022H688.385C682.657 148.31 671.361 140.939 664.097 137.89C659.201 147.479 659.617 150.86 665.089 153.022H639.489C640.353 152.301 639.681 149.585 637.857 146.426L623.105 120.875C621.281 117.715 618.817 115 617.089 114.224H681.793C677.185 117.438 673.281 121.872 670.273 126.972C669.377 128.413 668.641 129.798 667.841 131.073ZM653.025 148.532C668.609 123.424 671.297 116.552 656.193 116.552H637.825C634.561 116.552 636.545 119.988 638.401 123.203L653.025 148.532Z" fill="black"/>
<path d="M712.647 153.077C713.479 152.301 712.807 149.585 710.983 146.426L696.231 120.875C694.407 117.715 691.943 115 690.247 114.279H793.567C789.567 116.995 740.125 112.345 743.303 124.81C743.943 124.921 744.551 124.976 745.319 125.087C755.751 126.528 766.535 131.904 771.303 140.163C775.399 147.257 772.103 153.077 763.911 153.077H712.647ZM757.415 140.163C754.279 134.731 747.719 130.131 741.159 128.302C733.287 141.715 730.791 147.59 733.415 150.805C740.039 150.86 748.039 150.86 751.303 150.749C758.343 150.527 760.807 146.038 757.415 140.163ZM727.911 116.552H710.951C707.687 116.552 709.671 119.988 711.527 123.203L725.447 147.313C740.391 123.203 742.759 116.552 727.911 116.552Z" fill="black"/>
<path d="M517.698 137C517.698 137 517.698 140.481 520.198 146.03C522.697 151.579 526.804 153.605 526.804 153.605H508.592C508.592 153.605 512.627 151.452 515.163 146.03C517.698 140.608 517.698 137 517.698 137Z" fill="black"/>
<path fill-rule="evenodd" clip-rule="evenodd" d="M520.198 146.03C517.698 140.481 517.698 137 517.698 137C517.698 137 517.698 140.608 515.163 146.03C512.627 151.452 508.592 153.605 508.592 153.605H526.804C526.804 153.605 522.697 151.579 520.198 146.03ZM515.198 161.18C517.698 166.729 517.698 170.21 517.698 170.21C517.698 170.21 517.698 166.602 520.233 161.18C522.768 155.758 526.804 153.605 526.804 153.605L508.592 153.605C508.592 153.605 512.698 155.631 515.198 161.18Z" fill="black"/>
<path d="M101.282 130.707C97.15 128.551 97.1501 127.198 97.1501 127.198C97.1501 127.198 97.1501 128.6 92.9598 130.707C88.7996 132.799 22.7885 133.627 22.6943 133.639C22.793 133.65 88.9173 134.453 93.0185 136.593C97.1502 138.75 97.1502 140.102 97.1502 140.102C97.1502 140.102 97.1502 138.7 101.34 136.593C105.501 134.502 112.106 133.662 112.2 133.65C112.101 133.639 105.383 132.847 101.282 130.707Z" fill="black"/>
<path fill-rule="evenodd" clip-rule="evenodd" d="M436.37 159.275H432.85L429.749 164.28H433.269L436.37 159.275ZM436.432 164.28H440.607L443.708 159.275H439.533L436.432 164.28ZM412.54 159.275H416.06L412.959 164.28H409.439L412.54 159.275ZM420.297 164.28H416.121L419.223 159.275H423.398L420.297 164.28ZM443.77 164.28H507.429V159.275H446.871L443.77 164.28ZM426.586 164.28H423.46L426.561 159.275H429.688L426.586 164.28ZM101.365 159.275H409.378L406.276 164.28H101.365V159.275Z" fill="black"/>
<path fill-rule="evenodd" clip-rule="evenodd" d="M592.136 159.275L588.246 159.275L591.136 164.28L595.026 164.28L592.136 159.275ZM597.973 164.28L601.252 164.28L598.363 159.275L595.083 159.275L597.973 164.28ZM607.169 159.275L611.06 159.275L613.949 164.28L610.059 164.28L607.169 159.275ZM620.175 164.28L616.896 164.28L614.006 159.275L617.286 159.275L620.175 164.28ZM585.3 159.275L527.843 159.275L527.843 164.28L588.189 164.28L585.3 159.275ZM601.309 159.275L604.223 159.275L607.112 164.28L604.199 164.28L601.309 159.275ZM623.122 164.28L620.232 159.275L793.566 159.275L793.566 164.28L623.122 164.28Z" fill="black"/>
<path fill-rule="evenodd" clip-rule="evenodd" d="M779.358 232.772C736.104 259.418 683.05 257.663 650.523 225.136C650.379 224.991 650.235 224.846 650.091 224.701C682.805 256.937 736.156 258.032 779.059 230.416C779.056 230.381 779.053 230.345 779.05 230.308C778.847 228.144 777.288 225.672 777.288 225.672L777.288 225.672C777.288 225.672 779.537 227.468 781.654 227.975C781.962 228.049 782.238 228.1 782.486 228.134C789.094 223.582 795.427 218.331 801.367 212.391C821.534 192.225 833.756 167.524 837.672 142.919C837.144 142.557 836.484 142.159 835.659 141.729C831.558 139.589 824.841 138.797 824.742 138.786H824.741L824.741 138.786L824.741 138.786H824.742C824.836 138.774 831.44 137.934 835.601 135.843C837.149 135.064 838.125 134.382 838.741 133.831C840.318 113.069 835.903 92.7859 825.276 75.7976C825.031 75.7861 824.769 75.7803 824.491 75.7816C821.063 75.7968 817.154 77.935 817.098 77.9657L817.098 77.9657C817.137 77.919 819.965 74.5582 820.764 71.2249C820.906 70.6312 820.996 70.1085 821.047 69.6501C818.679 66.51 816.073 63.5079 813.23 60.6647C774.758 22.1921 707.204 27.3131 662.03 72.0042C662.198 71.8344 662.367 71.6649 662.536 71.4957C708.28 25.752 777.067 20.3738 816.176 59.4833C818.8 62.1073 821.224 64.8649 823.449 67.7401C823.893 67.7887 824.404 67.8169 824.99 67.8143C828.418 67.799 832.327 65.6608 832.383 65.6302L832.383 65.6302C832.344 65.6767 829.516 69.0375 828.717 72.371C828.475 73.3788 828.386 74.1823 828.378 74.8135C839.322 92.3111 843.758 113.26 841.921 134.66C842.447 135.019 843.104 135.415 843.923 135.843C848.024 137.983 854.742 138.774 854.84 138.786H854.842L854.841 138.786L854.841 138.786H854.841C854.747 138.798 848.142 139.637 843.981 141.729C842.359 142.545 841.364 143.255 840.755 143.819C836.613 168.388 824.299 192.988 804.164 213.124C797.823 219.464 791.04 225.029 783.954 229.808C783.954 230.051 783.967 230.322 783.995 230.626C784.198 232.79 785.757 235.262 785.757 235.262L785.757 235.262C785.757 235.262 783.508 233.466 781.391 232.959C780.436 232.731 779.785 232.718 779.358 232.772Z" fill="black"/>
</svg>
